<?xml version="1.0" encoding="UTF-8"?>
<svg width="22px" height="22px" viewBox="0 0 22 22" version="1.1" xmlns="http://www.w3.org/2000/svg" xmlns:xlink="http://www.w3.org/1999/xlink">
    <g id="Page-1" stroke="none" stroke-width="1" fill="none" fill-rule="evenodd">
        <g id="02-languages" transform="translate(-712.500000, -401.500000)">
            <rect fill="#262262" x="0" y="0" width="1661" height="1044"></rect>
           
            <g id="Choose-languages" transform="translate(286.000000, 292.000000)">
                <g id="field/icon-toggle" transform="translate(412.000000, 98.000000)">
                    <rect id="Rectangle" fill="#F5F7FA" x="0" y="0" width="402" height="45" rx="2"></rect>
                    <g id="flag" transform="translate(14.500000, 11.500000)" fill-rule="nonzero">
                        <g id="481317_china_chinese_circle_country_flag_icon">
                            <circle id="Oval" fill="#CC0000" cx="11" cy="11" r="11"></circle>
                            <g id="Group" transform="translate(3.243625, 2.256375)" fill="#FFE000">
                                <polygon id="Path" points="3.01640625 6.47676562 1.15207812 7.77390625 1.80984375 5.60020312 0 4.22829687 2.27046875 4.18171875 3.01640625 2.03689062 3.762 4.18171875 6.0328125 4.22829687 4.22279688 5.60020312 4.88090625 7.77390625"></polygon>
                                <polygon id="Path" points="10.2776094 3.70476562 10.0383594 2.9335625 10.7047188 3.39057812 11.364375 2.92496875 11.1350938 3.6994375 11.782375 4.18257812 10.9750781 4.20492187 10.7145156 4.96907812 10.4446719 4.20784375 9.63703125 4.19684375"></polygon>
                                <polygon id="Path" points="7.96864063 9.4538125 7.72973438 8.68329688 8.39592188 9.13996875 9.05592188 8.67401563 8.8268125 9.44882813 9.4730625 9.93248438 8.66610938 9.95414063 8.40623438 10.7179531 8.13604688 9.95723438 7.32875 9.94623438"></polygon>
                                <polygon id="Path" points="8.17265625 1.51335938 7.40540625 1.76584375 7.8505625 1.09192188 7.37326562 0.44034375 8.15151562 0.655875 8.62348437 0 8.65975 0.806609375 9.42871875 1.05307812 8.67315625 1.33735937 8.67590625 2.14448438"></polygon>
                                <polygon id="Path" points="10.7102188 7.38048437 10.0469531 7.84128125 10.280875 7.06870312 9.63703125 6.58092187 10.4446719 6.56425 10.7102188 5.801125 10.9750781 6.56425 11.782375 6.58092187 11.1392188 7.06870312 11.3724531 7.84128125"></polygon>
                            </g>
                        </g>
                    </g>
                </g>
            </g>
        </g>
    </g>
</svg>