<?xml version="1.0" encoding="UTF-8"?>
<svg width="22px" height="22px" viewBox="0 0 22 22" version="1.1" xmlns="http://www.w3.org/2000/svg" xmlns:xlink="http://www.w3.org/1999/xlink">
 
    <g id="Page-1" stroke="none" stroke-width="1" fill="none" fill-rule="evenodd">
        <g id="02-languages" transform="translate(-712.500000, -456.500000)">
            <rect fill="#262262" x="0" y="0" width="1661" height="1044"></rect>
            
            <g id="Choose-languages" transform="translate(286.000000, 292.000000)">
                <g id="field/icon-toggle" transform="translate(412.000000, 153.000000)">
                    <rect id="Rectangle" fill="#F5F7FA" x="0" y="0" width="402" height="45" rx="2"></rect>
                    <g id="flag" transform="translate(14.500000, 11.500000)" fill-rule="nonzero">
                        <g id="481329_circle_country_flag_german_germany_icon">
                            <circle id="Oval" fill="#FFFFFF" cx="11" cy="11" r="11"></circle>
                            <g id="Group">
                                <path d="M0.628375,7.33339062 L21.371625,7.33339062 C19.8611875,3.0614375 15.789125,0 11,0 C6.210875,0 2.1388125,3.0614375 0.628375,7.33339062 Z" id="Path" fill="#000000"></path>
                                <path d="M21.3717969,14.6666094 L0.628375,14.6666094 C2.1388125,18.9385625 6.210875,22 11,22 C15.789125,22 19.8611875,18.9385625 21.3717969,14.6666094 Z" id="Path" fill="#FFCC00"></path>
                                <path d="M0,11 C0,12.2859687 0.22275,13.5193437 0.628375,14.6666094 L21.371625,14.6666094 C21.7770781,13.5193437 22,12.2859687 22,11 C22,9.71403125 21.7770781,8.48048437 21.3717969,7.33339062 L0.628375,7.33339062 C0.22275,8.48048437 0,9.71403125 0,11 Z" id="Path" fill="#CC0000"></path>
                            </g>
                        </g>
                    </g>
                </g>
            </g>
        </g>
    </g>
</svg>