<?xml version="1.0" encoding="UTF-8"?>
<svg width="21.643316px" height="22.851px" viewBox="0 0 21.643316 22.851" version="1.1" xmlns="http://www.w3.org/2000/svg" xmlns:xlink="http://www.w3.org/1999/xlink">
    <title>290C13C9-2DE2-40AC-BA38-D3D0F0D88400</title>
    <g id="Page-1" stroke="none" stroke-width="1" fill="none" fill-rule="evenodd" stroke-linecap="square">
        <g id="07-Authentication" transform="translate(-298.000000, -172.000000)" stroke="#FFFFFF" stroke-width="2.5">
            <g id="Header" transform="translate(286.000000, 158.000000)">
                <g id="ico-authentification" transform="translate(12.000000, 14.000000)">
                    <path d="M0,11.14 C0.321,5.225 4.688,0.353 10.211,0.016 C10.472,0.004 10.634,0 10.793,0 C16.522,0 21.279,4.899 21.625,11.151 C21.637,11.394 21.754,13.931 21.199,17.418" id="Path"></path>
                    <path d="M4.145,18.014 C5.484,15.339 5.402,12.19 5.4,12.151 C5.25,8.915 7.544,6.125 10.512,5.944 C10.622,5.937 10.705,5.935 10.792,5.935 C13.661,5.935 16.046,8.383 16.216,11.506 C16.232,11.803 16.446,16.438 14.607,21.453" id="Path"></path>
                    <path d="M10.808,11.862 C10.808,11.862 11.149,18.115 7.69,22.851" id="Path"></path>
                </g>
            </g>
        </g>
    </g>
</svg>