<?xml version="1.0" encoding="UTF-8"?>
<svg width="58px" height="53px" viewBox="0 0 58 53" version="1.1" xmlns="http://www.w3.org/2000/svg" xmlns:xlink="http://www.w3.org/1999/xlink">
    <title>DDF833F1-2613-4D10-9629-908F23AC28A2</title>
    <defs>
        <linearGradient x1="90.5676076%" y1="55.2778026%" x2="-118.129618%" y2="-3.29620989%" id="linearGradient-1">
            <stop stop-color="#0078D4" offset="0%"></stop>
            <stop stop-color="#243A5E" offset="100%"></stop>
        </linearGradient>
        <linearGradient x1="39.8289965%" y1="50.1489153%" x2="16.7398985%" y2="28.2684669%" id="linearGradient-2">
            <stop stop-color="#0078D4" offset="0%"></stop>
            <stop stop-color="#243A5E" offset="100%"></stop>
        </linearGradient>
        <linearGradient x1="54.4789182%" y1="-192.608364%" x2="47.8566507%" y2="159.717652%" id="linearGradient-3">
            <stop stop-color="#50E6FF" offset="0%"></stop>
            <stop stop-color="#0078D4" offset="100%"></stop>
        </linearGradient>
        <linearGradient x1="-123.4279%" y1="118.714454%" x2="104.589399%" y2="34.8794699%" id="linearGradient-4">
            <stop stop-color="#0078D4" offset="0%"></stop>
            <stop stop-color="#50E6FF" offset="100%"></stop>
        </linearGradient>
        <linearGradient x1="43.4998127%" y1="-56.1289046%" x2="52.6728645%" y2="112.973435%" id="linearGradient-5">
            <stop stop-color="#50E6FF" offset="67.71%"></stop>
            <stop stop-color="#0078D4" offset="100%"></stop>
        </linearGradient>
    </defs>
    <g id="Page-1" stroke="none" stroke-width="1" fill="none" fill-rule="evenodd">
        <g id="07-Authentication" transform="translate(-318.000000, -264.000000)">
            <g id="Authentication-provider" transform="translate(286.000000, 224.000000)">
                <g id="ico-active-directory" transform="translate(32.000000, 40.000000)">
                    <line x1="18.7918955" y1="6.3635749" x2="23.1604525" y2="18.4960928" id="Path" stroke="#ACF3FD" stroke-width="0.144"></line>
                    <line x1="7.52986555" y1="8.82969676" x2="14.4890192" y2="15.8978298" id="Path" stroke="#ACF3FD" stroke-width="0.144"></line>
                    <line x1="0.614658914" y1="15.1711977" x2="11.0423907" y2="22.3274168" id="Path" stroke="#ACF3FD" stroke-width="0.144"></line>
                    <polyline id="Path" stroke="#ACF3FD" stroke-width="0.144" points="11.26191 15.5234458 7.85918053 13.9821196 10.4057582 17.5051784"></polyline>
                    <line x1="7.0249783" y1="20.719996" x2="17.6941789" y2="27.3258273" id="Path" stroke="#ACF3FD" stroke-width="0.144"></line>
                    <polyline id="Path" stroke="#ACF3FD" stroke-width="0.144" points="17.6723493 27.4138894 4.06131145 25.0578691 15.8501782 31.9498058"></polyline>
                    <path d="M7.02493032,21.1823938 C7.31032224,21.1823938 7.52984156,20.9622147 7.52984156,20.6759649 C7.52984156,20.3897152 7.31032224,20.169512 7.02493032,20.169512 C6.7395384,20.169512 6.51999509,20.3897152 6.51999509,20.6759649 C6.49804555,20.9622147 6.7395384,21.1823938 7.02493032,21.1823938 Z" id="Path" fill="#D5F9FD" fill-rule="nonzero"></path>
                    <path d="M10.230138,33.8655159 C10.5155299,33.8655159 10.7350492,33.6453609 10.7350492,33.359039 C10.7350492,33.072717 10.5155299,32.852562 10.230138,32.852562 C9.94474607,32.852562 9.72520276,33.072717 9.72520276,33.359039 C9.74715229,33.6010892 9.94474607,33.8655159 10.230138,33.8655159 Z" id="Path" fill="#50E6FF" fill-rule="nonzero"></path>
                    <path d="M15.8940773,32.6324069 C16.1793013,32.6324069 16.3987966,32.4122518 16.3987966,32.1259299 C16.3987966,31.839608 16.1793013,31.6194529 15.8940773,31.6194529 C15.6085894,31.6194529 15.3890461,31.839608 15.3890461,32.1259299 C15.4109956,32.390116 15.6085894,32.6324069 15.8940773,32.6324069 Z" id="Path" fill="#50E6FF" fill-rule="nonzero"></path>
                    <path d="M0.504935233,15.5234939 C0.79032715,15.5234939 1.00984648,15.3033148 1.00984648,15.0170651 C1.00984648,14.7308153 0.79032715,14.5106121 0.504935233,14.5106121 C0.219543316,14.5106121 0,14.7308153 0,15.0170651 C0,15.3033148 0.219543316,15.5234939 0.504935233,15.5234939 Z" id="Path" fill="#32B0E7" fill-rule="nonzero"></path>
                    <path d="M30.4049981,4.20564608 C30.6904619,4.20564608 30.9099573,3.98544288 30.9099573,3.69921721 C30.9099573,3.41296749 30.6904619,3.19276428 30.4049981,3.19276428 C30.1195342,3.19276428 29.9000388,3.41296749 29.9000388,3.69921721 C29.8561398,3.98544288 30.1195342,4.20564608 30.4049981,4.20564608 Z" id="Path" fill="#50E6FF" fill-rule="nonzero"></path>
                    <path d="M4.03931394,25.5200745 C4.32470586,25.5200745 4.54422519,25.2999194 4.54422519,25.0138381 C4.54422519,24.7275162 4.32470586,24.5073611 4.03931394,24.5073611 C3.75392203,24.5073611 3.5344027,24.7275162 3.5344027,25.0138381 C3.5344027,25.2780242 3.75392203,25.5200745 4.03931394,25.5200745 Z" id="Path" fill="#50E6FF" fill-rule="nonzero"></path>
                    <path d="M13.7207616,8.80768126 C14.0061535,8.80768126 14.2256968,8.58750212 14.2256968,8.30125239 C14.2256968,8.01500266 14.0061535,7.79479946 13.7207616,7.79479946 C13.4353936,7.79479946 13.2158503,8.01500266 13.2158503,8.30125239 C13.2158503,8.58750212 13.4353936,8.80768126 13.7207616,8.80768126 Z" id="Path" fill="#50E6FF" fill-rule="nonzero"></path>
                    <path d="M7.81528146,14.4665811 C8.10067338,14.4665811 8.32021669,14.246402 8.32021669,13.9601523 C8.32021669,13.6739025 8.10067338,13.4536993 7.81528146,13.4536993 C7.52988954,13.4536993 7.31037021,13.6739025 7.31037021,13.9601523 C7.31037021,14.2023469 7.5738126,14.4665811 7.81528146,14.4665811 Z" id="Path" fill="#50E6FF" fill-rule="nonzero"></path>
                    <path d="M17.7601475,27.8541995 C18.0453715,27.8541995 18.2651067,27.6340444 18.2651067,27.3477225 C18.2651067,27.0614006 18.0453715,26.8412455 17.7601475,26.8412455 C17.4746836,26.8412455 17.2551883,27.0614006 17.2551883,27.3477225 C17.2331188,27.5900134 17.4746836,27.8541995 17.7601475,27.8541995 Z" id="Path" fill="#50E6FF" fill-rule="nonzero"></path>
                    <path d="M18.8576242,6.91398666 C19.143088,6.91398666 19.3625834,6.69380752 19.3625834,6.40755779 C19.3625834,6.12130806 19.143088,5.90112892 18.8576242,5.90112892 C18.5724002,5.90112892 18.3529048,6.12130806 18.3529048,6.40755779 C18.3308354,6.67179201 18.5724002,6.91398666 18.8576242,6.91398666 Z" id="Path" fill="#50E6FF" fill-rule="nonzero"></path>
                    <path d="M24.4779043,6.91398666 C24.7631283,6.91398666 24.9826236,6.69380752 24.9826236,6.40755779 C24.9826236,6.12130806 24.7631283,5.90112892 24.4779043,5.90112892 C24.1924404,5.90112892 23.972945,6.12130806 23.972945,6.40755779 C23.9947746,6.67179201 24.1924404,6.91398666 24.4779043,6.91398666 Z" id="Path" fill="#32B0E7" fill-rule="nonzero"></path>
                    <path d="M24.4558348,1.0128777 C24.7410588,1.0128777 24.960794,0.792686532 24.960794,0.506439213 C24.960794,0.220191893 24.7410588,0 24.4558348,0 C24.1703709,0 23.9508756,0.220191893 23.9508756,0.506439213 C23.9069765,0.770668618 24.1703709,1.0128777 24.4558348,1.0128777 Z" id="Path" fill="#32B0E7" fill-rule="nonzero"></path>
                    <path d="M7.52988954,9.20400852 C7.81528146,9.20400852 8.03482477,8.98382938 8.03482477,8.69757966 C8.03482477,8.41132993 7.81528146,8.19115079 7.52988954,8.19115079 C7.24449762,8.19115079 7.0249783,8.41132993 7.0249783,8.69757966 C7.0249783,8.98382938 7.24449762,9.20400852 7.52988954,9.20400852 Z" id="Path" fill="#32B0E7" fill-rule="nonzero"></path>
                    <polygon id="Path" stroke="#50E6FF" stroke-width="0.203376" opacity="0.5" stroke-linecap="round" stroke-linejoin="round" points="28.6051363 31.839608 23.6874812 28.8009867 28.5612372 26.0265514 33.5882802 28.9111845"></polygon>
                    <polygon id="Path" stroke="#50E6FF" stroke-width="0.203376" opacity="0.5" points="28.6048964 37.6966956 23.599683 34.8123031 28.6269659 31.883639 33.6542487 34.8123031"></polygon>
                    <polygon id="Path" stroke="#50E6FF" stroke-width="0.18" opacity="0.5" stroke-linecap="round" stroke-linejoin="round" points="23.6874812 28.8009867 23.599683 34.7682721 28.6269659 37.6526645 28.6269659 31.839608"></polygon>
                    <polygon id="Path" stroke="#50E6FF" stroke-width="0.203376" opacity="0.5" points="28.5612372 26.0265514 28.6051363 31.839608 33.6324191 34.7682721 33.6324191 28.9552155"></polygon>
                    <path d="M28.6051363,26.7531835 C28.9781584,26.7531835 29.2417927,26.4889974 29.2417927,26.1146135 C29.2417927,25.7402295 28.9781584,25.4760434 28.6051363,25.4760434 C28.2318743,25.4760434 27.9684799,25.7402295 27.9684799,26.1146135 C27.9684799,26.4228306 28.2976029,26.7531835 28.6051363,26.7531835 Z" id="Path" fill="#32B0E7" fill-rule="nonzero"></path>
                    <path d="M23.7313802,29.4835877 C24.1046422,29.4835877 24.3680366,29.2194016 24.3680366,28.8450177 C24.3680366,28.4706337 24.1046422,28.2064477 23.7313802,28.2064477 C23.3581182,28.2064477 23.0947238,28.4706337 23.0947238,28.8450177 C23.0947238,29.1532348 23.4020173,29.4835877 23.7313802,29.4835877 Z" id="Path" fill="#32B0E7" fill-rule="nonzero"></path>
                    <path d="M33.6760783,29.6378166 C34.0493403,29.6378166 34.3127347,29.3736305 34.3127347,28.9992465 C34.3127347,28.6248626 34.0493403,28.3606765 33.6760783,28.3606765 C33.3030562,28.3606765 33.0394219,28.6248626 33.0394219,28.9992465 C33.0394219,29.3514947 33.3248858,29.6378166 33.6760783,29.6378166 Z" id="Path" fill="#50E6FF" fill-rule="nonzero"></path>
                    <path d="M28.6051363,32.522209 C28.9781584,32.522209 29.2417927,32.2580229 29.2417927,31.883639 C29.2417927,31.5092551 28.9781584,31.245069 28.6051363,31.245069 C28.2318743,31.245069 27.9684799,31.5092551 27.9684799,31.883639 C27.9684799,32.2358871 28.2976029,32.522209 28.6051363,32.522209 Z" id="Path" fill="#50E6FF" fill-rule="nonzero"></path>
                    <path d="M23.599683,35.4508731 C23.972945,35.4508731 24.2363394,35.1864464 24.2363394,34.8123031 C24.2363394,34.4379192 23.972945,34.1737331 23.599683,34.1737331 C23.226421,34.1737331 22.9630266,34.4379192 22.9630266,34.8123031 C22.941197,35.1205202 23.226421,35.4508731 23.599683,35.4508731 Z" id="Path" fill="#32B0E7" fill-rule="nonzero"></path>
                    <path d="M28.6490353,38.3352656 C29.0220575,38.3352656 29.2856918,38.0710795 29.2856918,37.6966956 C29.2856918,37.3225522 29.0220575,37.0581255 28.6490353,37.0581255 C28.2757733,37.0581255 28.0123789,37.3225522 28.0123789,37.6966956 C28.0123789,38.0710795 28.3417419,38.3352656 28.6490353,38.3352656 Z" id="Path" fill="#32B0E7" fill-rule="nonzero"></path>
                    <path d="M33.6760783,35.4508731 C34.0493403,35.4508731 34.3127347,35.1864464 34.3127347,34.8123031 C34.3127347,34.4379192 34.0493403,34.1737331 33.6760783,34.1737331 C33.3030562,34.1737331 33.0394219,34.4379192 33.0394219,34.8123031 C33.0394219,35.1205202 33.3248858,35.4508731 33.6760783,35.4508731 Z" id="Path" fill="#32B0E7" fill-rule="nonzero"></path>
                    <path d="M19.7358454,35.6488924 L10.3838327,39.6564367 C13.0401581,45.9319392 18.0674409,50.0273049 24.7192292,51.3265808 L26.6730975,41.2417939 C23.5337145,40.6472548 20.9652592,38.5113897 19.7358454,35.6488924 Z" id="Path" fill="url(#linearGradient-1)" fill-rule="nonzero"></path>
                    <path d="M28.4731992,22.4815494 C33.6542487,22.5035649 37.8472094,26.7312883 37.8472094,31.9498058 C37.8472094,37.1683234 33.6321792,41.4179179 28.4074705,41.4179179 C27.8147132,41.4179179 27.2219558,41.3519917 26.6512679,41.2639297 L24.6973996,51.3487166 C25.9268134,51.5907669 27.1780568,51.7228599 28.4513696,51.7009647 C39.2961185,51.7009647 48.0994409,42.8711821 48.0994409,31.9498058 C48.0994409,21.3806056 39.8231472,12.7491068 29.4392186,12.2206625 L28.4731992,22.4815494 Z" id="Path" fill="url(#linearGradient-2)" fill-rule="nonzero"></path>
                    <path d="M20.2847037,36.7277726 C19.4503815,35.3185395 18.9895613,33.6891513 18.9895613,31.92767 C18.9895613,30.0119599 19.5602491,28.2285835 20.5262685,26.7531835 L10.1643134,20.213543 C6.47619197,25.9825204 5.44439596,34.4157833 9.13251736,41.8141971 L20.2847037,36.7277726 Z" id="Path" fill="url(#linearGradient-3)" fill-rule="nonzero"></path>
                    <path d="M20.5260286,26.7531835 C22.2165026,24.1770082 25.1143208,22.4595339 28.4293001,22.4595339 C28.4511297,22.4595339 28.4731992,22.4595339 28.4950288,22.4595339 L29.8343102,8.19115079 C20.504199,7.75076845 13.281603,12.0224748 8.53971203,18.9584906 C10.4496333,20.5879029 17.2770178,24.7934424 20.5260286,26.7531835 Z" id="Path" fill="url(#linearGradient-4)" fill-rule="nonzero"></path>
                    <path d="M51.0188488,39.9427586 C51.0188488,36.7499084 48.4064944,34.1515972 45.2452818,34.1515972 C42.3913626,34.1515972 39.9985036,36.2655672 39.5374435,38.9959714 L41.9084729,38.9959714 C42.0619997,38.4454634 42.3692932,37.9168506 42.7864542,37.4986763 C43.4451801,36.8379704 44.3231615,36.4857223 45.2232123,36.4857223 C46.123503,36.4857223 47.0235539,36.8379704 47.6602103,37.4986763 C48.3186963,38.1591415 48.6698889,39.0400025 48.6698889,39.9427586 C48.6698889,40.1188826 48.6698889,40.6472548 48.6698889,41.3519917 L39.4275758,41.3519917 L39.4275758,53 L50.9970192,53 L50.9970192,42.1226548 C51.0188488,41.0656698 51.0188488,40.2069447 51.0188488,39.9427586 Z" id="Path" fill="url(#linearGradient-5)" fill-rule="nonzero"></path>
                    <polygon id="Path" stroke="#50E6FF" stroke-width="0.18" opacity="0.5" stroke-linejoin="round" points="44.9598179 27.9862926 41.0084221 25.6961985 44.9159189 23.4062729 57.3854131 24.5513921"></polygon>
                    <polyline id="Path" stroke="#50E6FF" stroke-width="0.203376" opacity="0.5" points="44.9600578 32.5441042 41.0523211 30.2542508 44.9600578 28.0081878"></polyline>
                    <polygon id="Path" stroke="#50E6FF" stroke-width="0.203376" opacity="0.5" stroke-linejoin="round" points="41.0084221 25.6961985 41.0523211 30.232115 44.9598179 32.522209 44.9598179 27.9862926"></polygon>
                    <polyline id="Path" stroke="#50E6FF" stroke-width="0.18" opacity="0.5" stroke-linejoin="round" points="50.2286656 34.0195042 57.3854131 24.5513921 44.9159189 23.4062729 44.9598179 27.9862926"></polyline>
                    <path d="M44.9600578,23.9347173 C45.2452818,23.9347173 45.4647771,23.7145863 45.4647771,23.4283365 C45.4647771,23.1420868 45.2452818,22.9218836 44.9600578,22.9218836 C44.6745939,22.9218836 44.4550986,23.1420868 44.4550986,23.4283365 C44.4550986,23.7366018 44.6745939,23.9347173 44.9600578,23.9347173 Z" id="Path" fill="#32B0E7" fill-rule="nonzero"></path>
                    <path d="M57.3854131,25.0797643 C57.670637,25.0797643 57.8903723,24.8596092 57.8903723,24.5732873 C57.8903723,24.2869654 57.670637,24.0668103 57.3854131,24.0668103 C57.0999492,24.0668103 56.8804538,24.2869654 56.8804538,24.5732873 C56.8804538,24.8596092 57.0999492,25.0797643 57.3854131,25.0797643 Z" id="Path" fill="#50E6FF" fill-rule="nonzero"></path>
                    <path d="M44.9600578,28.5146648 C45.2452818,28.5146648 45.4647771,28.2945097 45.4647771,28.0084284 C45.4647771,27.7221065 45.2452818,27.5019514 44.9600578,27.5019514 C44.6745939,27.5019514 44.4550986,27.7221065 44.4550986,28.0084284 C44.4550986,28.2945097 44.6745939,28.5146648 44.9600578,28.5146648 Z" id="Path" fill="#32B0E7" fill-rule="nonzero"></path>
                    <path d="M41.0741507,30.7607278 C41.3596146,30.7607278 41.5791099,30.5405727 41.5791099,30.2542508 C41.5791099,29.9679289 41.3596146,29.7477738 41.0741507,29.7477738 C40.7886868,29.7477738 40.5691915,29.9679289 40.5691915,30.2542508 C40.5691915,30.5405727 40.7886868,30.7607278 41.0741507,30.7607278 Z" id="Path" fill="#32B0E7" fill-rule="nonzero"></path>
                    <path d="M45.003717,33.0505812 C45.2891809,33.0505812 45.5086762,32.8304262 45.5086762,32.5443449 C45.5086762,32.2580229 45.2891809,32.0378679 45.003717,32.0378679 C44.7182531,32.0378679 44.4987578,32.2580229 44.4987578,32.5443449 C44.4987578,32.8304262 44.7182531,33.0505812 45.003717,33.0505812 Z" id="Path" fill="#32B0E7" fill-rule="nonzero"></path>
                    <path d="M50.2725647,34.5259812 C50.5580285,34.5259812 50.7775239,34.3058261 50.7775239,34.0195042 C50.7775239,33.7331823 50.5580285,33.5130272 50.2725647,33.5130272 C49.9871008,33.5130272 49.7676054,33.7331823 49.7676054,34.0195042 C49.7237064,34.2617951 49.9871008,34.5259812 50.2725647,34.5259812 Z" id="Path" fill="#32B0E7" fill-rule="nonzero"></path>
                    <path d="M41.0302516,26.2907375 C41.3157155,26.2907375 41.5352109,26.0705825 41.5352109,25.7842606 C41.5352109,25.4981793 41.3157155,25.2780242 41.0302516,25.2780242 C40.7447878,25.2780242 40.5252924,25.4981793 40.5252924,25.7842606 C40.5473619,26.0486873 40.7886868,26.2907375 41.0302516,26.2907375 Z" id="Path" fill="#32B0E7" fill-rule="nonzero"></path>
                    <path d="M57.4950408,22.4815013 C57.7805047,22.4815013 58,22.2612981 58,21.9750483 C58,21.6888227 57.7805047,21.4686195 57.4950408,21.4686195 C57.2098168,21.4686195 56.9900816,21.6888227 56.9900816,21.9750483 C56.9900816,22.217267 57.2098168,22.4815013 57.4950408,22.4815013 Z" id="Path" fill="#50E6FF" fill-rule="nonzero"></path>
                    <path d="M45.2452818,47.0108194 C46.079604,47.0108194 46.73809,46.3503542 46.73809,45.5135242 C46.73809,44.6766943 46.079604,44.0162291 45.2452818,44.0162291 C44.4111995,44.0162291 43.7524736,44.6766943 43.7524736,45.5135242 C43.7524736,46.3282183 44.4111995,47.0108194 45.2452818,47.0108194 Z" id="Path" fill="#0078D4" fill-rule="nonzero"></path>
                    <path d="M47.7480084,49.9832739 C47.7480084,48.5961766 46.6284623,47.4732654 45.2455217,47.4732654 C43.8623412,47.4732654 42.7427951,48.5961766 42.7427951,49.9832739 L47.7480084,49.9832739 Z" id="Path" fill="#0078D4" fill-rule="nonzero"></path>
                    <line x1="27.5510789" y1="7.94895614" x2="27.5510789" y2="12.5289277" id="Path" stroke="#ACF3FD" stroke-width="0.144"></line>
                    <polygon id="Path" stroke="#ACF3FD" stroke-width="0.144" points="27.5510789 12.5289277 23.6435821 10.2389539 27.5510789 7.99301122 31.4588156 10.5031882"></polygon>
                    <polygon id="Path" stroke="#ACF3FD" stroke-width="0.144" points="27.5733882 17.1088271 12.5792898 11.8902855 27.5294892 12.5068159 34.7298958 19.9052537"></polygon>
                    <polygon id="Path" stroke="#ACF3FD" stroke-width="0.144" points="23.6217525 10.1948748 12.5792898 11.8683421 27.5733882 17.0428287 27.5294892 12.4628571"></polygon>
                    <polyline id="Path" stroke="#50E6FF" stroke-width="0.203376" opacity="0.5" stroke-linejoin="round" points="27.5510789 12.5289277 34.7517254 19.8833104 31.4367461 10.4811486 27.5510789 7.94895614"></polyline>
                    <path d="M23.6654117,10.7673261 C23.9508756,10.7673261 24.1703709,10.5471229 24.1703709,10.2608732 C24.1703709,9.97462348 23.9508756,9.75444434 23.6654117,9.75444434 C23.3799478,9.75444434 23.1604525,9.97462348 23.1604525,10.2608732 C23.1604525,10.5691384 23.3799478,10.7673261 23.6654117,10.7673261 Z" id="Path" fill="#D5F9FD" fill-rule="nonzero"></path>
                    <path d="M27.5731484,8.49941602 C27.8586122,8.49941602 28.0781076,8.27921282 28.0781076,7.9929631 C28.0781076,7.70671337 27.8586122,7.48653423 27.5731484,7.48653423 C27.2879244,7.48653423 27.0681891,7.70671337 27.0681891,7.9929631 C27.0902586,8.27921282 27.2879244,8.49941602 27.5731484,8.49941602 Z" id="Path" fill="#D5F9FD" fill-rule="nonzero"></path>
                    <path d="M31.5029545,11.0315363 C31.7881785,11.0315363 32.0076739,10.8113572 32.0076739,10.5251074 C32.0076739,10.2388577 31.7881785,10.0186545 31.5029545,10.0186545 C31.2174906,10.0186545 30.9979953,10.2388577 30.9979953,10.5251074 C30.9759258,10.7893176 31.2174906,11.0315363 31.5029545,11.0315363 Z" id="Path" fill="#50E6FF" fill-rule="nonzero"></path>
                    <path d="M27.5731484,13.0572999 C27.8586122,13.0572999 28.0781076,12.8371207 28.0781076,12.550871 C28.0781076,12.2646213 27.8586122,12.0444421 27.5731484,12.0444421 C27.2879244,12.0444421 27.0681891,12.2646213 27.0681891,12.550871 C27.0902586,12.8591362 27.2879244,13.0572999 27.5731484,13.0572999 Z" id="Path" fill="#D5F9FD" fill-rule="nonzero"></path>
                    <path d="M12.5572444,12.3306678 C12.8426363,12.3306678 13.0621556,12.1104887 13.0621556,11.8242389 C13.0621556,11.5379892 12.8426363,11.317786 12.5572444,11.317786 C12.2718524,11.317786 12.0523331,11.5379892 12.0523331,11.8242389 C12.0523331,12.0884732 12.2718524,12.3306678 12.5572444,12.3306678 Z" id="Path" fill="#50E6FF" fill-rule="nonzero"></path>
                    <path d="M27.6170474,17.5932404 C27.9022714,17.5932404 28.1220067,17.3730372 28.1220067,17.0867875 C28.1220067,16.8005618 27.9022714,16.5803586 27.6170474,16.5803586 C27.3315835,16.5803586 27.1120882,16.8005618 27.1120882,17.0867875 C27.1120882,17.3950768 27.3315835,17.5932404 27.6170474,17.5932404 Z" id="Path" fill="#D5F9FD" fill-rule="nonzero"></path>
                    <path d="M34.7298958,20.4337703 C35.0153597,20.4337703 35.234855,20.2135671 35.234855,19.9273174 C35.234855,19.6410676 35.0153597,19.4208885 34.7298958,19.4208885 C34.4446718,19.4208885 34.2251765,19.6410676 34.2251765,19.9273174 C34.203107,20.1695361 34.4446718,20.4337703 34.7298958,20.4337703 Z" id="Path" fill="#50E6FF" fill-rule="nonzero"></path>
                    <polygon id="Path" stroke="#50E6FF" stroke-width="0.168" opacity="0.5" stroke-linejoin="round" points="19.5823186 44.9849114 15.5867598 42.695058 19.4945205 40.448995 24.587532 47.4070985"></polygon>
                    <polygon id="Path" stroke="#50E6FF" stroke-width="0.203376" opacity="0.5" points="9.92270058 43.201535 15.6305149 42.695058 19.5820787 44.985152 19.5381797 40.4052046"></polygon>
                    <path d="M9.9666956,43.7077714 C10.2520875,43.7077714 10.4716308,43.4876163 10.4716308,43.201535 C10.4716308,42.9152131 10.2520875,42.695058 9.9666956,42.695058 C9.68130369,42.695058 9.46178436,42.9152131 9.46178436,43.201535 C9.46178436,43.4876163 9.68130369,43.7077714 9.9666956,43.7077714 Z" id="Path" fill="#50E6FF" fill-rule="nonzero"></path>
                    <path d="M19.5820787,40.9776078 C19.8675426,40.9776078 20.0870379,40.7574527 20.0870379,40.4711308 C20.0870379,40.1848089 19.8675426,39.9646538 19.5820787,39.9646538 C19.2968547,39.9646538 19.0771195,40.1848089 19.0771195,40.4711308 C19.0771195,40.7793479 19.2968547,40.9776078 19.5820787,40.9776078 Z" id="Path" fill="#50E6FF" fill-rule="nonzero"></path>
                    <path d="M15.6305389,43.245566 C15.9159069,43.245566 16.1354022,43.0254109 16.1354022,42.739089 C16.1354022,42.4527671 15.9159069,42.232612 15.6305389,42.232612 C15.345147,42.232612 15.1256277,42.4527671 15.1256277,42.739089 C15.1256277,43.0254109 15.345147,43.245566 15.6305389,43.245566 Z" id="Path" fill="#50E6FF" fill-rule="nonzero"></path>
                    <path d="M19.5823186,45.491629 C19.8675426,45.491629 20.0872778,45.2712333 20.0872778,44.985152 C20.0872778,44.6988301 19.8675426,44.4786751 19.5823186,44.4786751 C19.2968547,44.4786751 19.0773594,44.6988301 19.0773594,44.985152 C19.0552899,45.2712333 19.2968547,45.491629 19.5823186,45.491629 Z" id="Path" fill="#50E6FF" fill-rule="nonzero"></path>
                    <path d="M24.6753301,47.9135755 C24.9605541,47.9135755 25.1802893,47.6934204 25.1802893,47.4070985 C25.1802893,47.1207766 24.9605541,46.9006215 24.6753301,46.9006215 C24.3898662,46.9006215 24.1703709,47.1207766 24.1703709,47.4070985 C24.1703709,47.6934204 24.3898662,47.9135755 24.6753301,47.9135755 Z" id="Path" fill="#32B0E7" fill-rule="nonzero"></path>
                </g>
            </g>
        </g>
    </g>
</svg>