<?xml version="1.0" encoding="UTF-8"?>
<svg width="22px" height="22px" viewBox="0 0 22 22" version="1.1" xmlns="http://www.w3.org/2000/svg" xmlns:xlink="http://www.w3.org/1999/xlink">
    <title>B3A2E729-6302-4167-A9F5-95F2968E07EF</title>
    <defs>
        <polygon id="path-1" points="241 115 1421 115 1421 930 241 930"></polygon>
        <filter x="-3.8%" y="-5.5%" width="107.6%" height="111.0%" filterUnits="objectBoundingBox" id="filter-2">
            <feOffset dx="0" dy="0" in="SourceAlpha" result="shadowOffsetOuter1"></feOffset>
            <feGaussianBlur stdDeviation="15" in="shadowOffsetOuter1" result="shadowBlurOuter1"></feGaussianBlur>
            <feColorMatrix values="0 0 0 0 0   0 0 0 0 0   0 0 0 0 0  0 0 0 0.15 0" type="matrix" in="shadowBlurOuter1"></feColorMatrix>
        </filter>
    </defs>
    <g id="Page-1" stroke="none" stroke-width="1" fill="none" fill-rule="evenodd">
        <g id="02-languages" transform="translate(-300.500000, -346.500000)">
            <rect fill="#262262" x="0" y="0" width="1661" height="1044"></rect>
           
            <g id="Choose-languages" transform="translate(286.000000, 292.000000)">
                <g id="field/icon-toggle" transform="translate(0.000000, 43.000000)">
                    <rect id="Rectangle" fill="#F5F7FA" x="0" y="0" width="402" height="45" rx="2"></rect>
                    <g id="9712630_uk_flag_england_flags_country_icon" transform="translate(14.500000, 11.500000)">
                        <path d="M22,11 C22,11.7015094 21.9335849,12.390566 21.8049057,13.054717 L13.3286792,13.054717 L13.3286792,21.7509434 C12.5773585,21.9128302 11.8011321,22 11,22 C10.1988679,22 9.41849057,21.9128302 8.66716981,21.7509434 L8.66716981,13.054717 L0.19509434,13.054717 C0.0664150943,12.390566 0,11.7015094 0,11 C0,10.2984906 0.0664150943,9.60943396 0.19509434,8.94528302 L8.66716981,8.94528302 L8.66716981,0.249056604 C9.41849057,0.0871698113 10.1988679,0 11,0 C11.8011321,0 12.5773585,0.0871698113 13.3286792,0.249056604 L13.3286792,8.94528302 L21.8049057,8.94528302 C21.9335849,9.60943396 22,10.2984906 22,11 Z" id="Path" fill="#F30040" fill-rule="nonzero"></path>
                        <path d="M7.99056604,0.45245283 L7.99056604,6.96113208 L2.90150943,3.55320755 C4.23396226,2.10867925 5.94415094,1.02113208 7.87849057,0.45245283 L7.99056604,0.45245283 Z" id="Path" fill="#14439E" fill-rule="nonzero"></path>
                        <path d="M2.66490566,8.11509434 L0.386037736,8.11509434 C0.498113208,7.68339623 0.639245283,7.26830189 0.805283019,6.86981132 L2.66490566,8.11509434 Z" id="Path" fill="#14439E" fill-rule="nonzero"></path>
                        <path d="M7.32226415,8.11509434 L4.54528302,8.11509434 L1.24943396,5.91509434 C1.46943396,5.48339623 1.71849057,5.07245283 2.00075472,4.67811321 L7.32226415,8.11509434 L7.32226415,8.11509434 Z" id="Path" fill="#F30040" fill-rule="nonzero"></path>
                        <path d="M7.99056604,15.034717 L7.99056604,21.5475472 L7.87849057,21.5475472 C5.94415094,20.974717 4.22981132,19.8871698 2.90150943,18.4426415 L7.99056604,15.034717 L7.99056604,15.034717 Z" id="Path" fill="#14439E" fill-rule="nonzero"></path>
                        <path d="M2.66490566,13.8849057 L0.805283019,15.1301887 C0.639245283,14.7316981 0.498113208,14.3166038 0.386037736,13.8849057 L2.66490566,13.8849057 Z" id="Path" fill="#14439E" fill-rule="nonzero"></path>
                        <path d="M7.32226415,13.8849057 L2.00075472,17.3218868 C1.71849057,16.9275472 1.46943396,16.5124528 1.24943396,16.0807547 L4.54528302,13.8849057 L7.32226415,13.8849057 Z" id="Path" fill="#F30040" fill-rule="nonzero"></path>
                        <path d="M19.0984906,3.55320755 L14.009434,6.96113208 L14.009434,0.45245283 L14.1215094,0.45245283 C16.0558491,1.02113208 17.7660377,2.10867925 19.0984906,3.55320755 L19.0984906,3.55320755 Z" id="Path" fill="#14439E" fill-rule="nonzero"></path>
                        <path d="M21.6139623,8.11509434 L19.3392453,8.11509434 L21.1988679,6.86981132 C21.3607547,7.26830189 21.5018868,7.68339623 21.6139623,8.11509434 L21.6139623,8.11509434 Z" id="Path" fill="#14439E" fill-rule="nonzero"></path>
                        <path d="M20.750566,5.91509434 L17.454717,8.11509434 L14.6818868,8.11509434 L19.9992453,4.67811321 C20.2815094,5.07245283 20.530566,5.48339623 20.750566,5.91509434 L20.750566,5.91509434 Z" id="Path" fill="#F30040" fill-rule="nonzero"></path>
                        <path d="M19.0984906,18.4426415 C17.7701887,19.8871698 16.0558491,20.974717 14.1215094,21.5475472 L14.009434,21.5475472 L14.009434,15.034717 L19.0984906,18.4426415 L19.0984906,18.4426415 Z" id="Path" fill="#14439E" fill-rule="nonzero"></path>
                        <path d="M21.6139623,13.8849057 C21.5018868,14.3124528 21.3607547,14.7275472 21.1988679,15.1260377 L19.3392453,13.8849057 L21.6139623,13.8849057 L21.6139623,13.8849057 Z" id="Path" fill="#14439E" fill-rule="nonzero"></path>
                        <path d="M20.750566,16.0807547 C20.530566,16.5124528 20.2815094,16.9275472 19.9992453,17.3218868 L14.6818868,13.8849057 L17.454717,13.8849057 L20.750566,16.0807547 L20.750566,16.0807547 Z" id="Path" fill="#F30040" fill-rule="nonzero"></path>
                        <path d="M21.8049057,8.94528302 L13.3286792,8.94528302 L13.3286792,0.249056604 C13.5984906,0.307169811 13.8641509,0.369433962 14.1215094,0.45245283 L14.009434,0.45245283 L14.009434,6.96113208 L19.0984906,3.55320755 C19.4222642,3.90603774 19.725283,4.27962264 19.9992453,4.67811321 L14.6818868,8.11509434 L17.454717,8.11509434 L20.750566,5.91509434 C20.9207547,6.22641509 21.0660377,6.54188679 21.1988679,6.86981132 L19.3392453,8.11509434 L21.6139623,8.11509434 C21.6886792,8.38490566 21.7550943,8.66301887 21.8049057,8.94528302 L21.8049057,8.94528302 Z" id="Path" fill="#FFFFFF" fill-rule="nonzero"></path>
                        <path d="M19.0984906,3.55320755 L14.009434,6.96113208 L14.009434,0.45245283 L14.1215094,0.45245283 C16.0558491,1.02113208 17.7660377,2.10867925 19.0984906,3.55320755 L19.0984906,3.55320755 Z" id="Path"></path>
                        <path d="M20.750566,5.91509434 L17.454717,8.11509434 L14.6818868,8.11509434 L19.9992453,4.67811321 C20.2815094,5.07245283 20.530566,5.48339623 20.750566,5.91509434 L20.750566,5.91509434 Z" id="Path"></path>
                        <path d="M21.6139623,8.11509434 L19.3392453,8.11509434 L21.1988679,6.86981132 C21.3607547,7.26830189 21.5018868,7.68339623 21.6139623,8.11509434 L21.6139623,8.11509434 Z" id="Path"></path>
                        <path d="M8.66716981,0.249056604 L8.66716981,8.94528302 L0.19509434,8.94528302 C0.24490566,8.66301887 0.311320755,8.38490566 0.386037736,8.11509434 L2.66490566,8.11509434 L0.805283019,6.86981132 C0.933962264,6.54188679 1.07924528,6.22641509 1.24943396,5.91509434 L4.54528302,8.11509434 L7.32226415,8.11509434 L2.00075472,4.67811321 C2.27471698,4.27962264 2.57773585,3.90603774 2.90150943,3.55320755 L7.99056604,6.96113208 L7.99056604,0.45245283 L7.87849057,0.45245283 C8.13584906,0.369433962 8.39735849,0.307169811 8.66716981,0.249056604 Z" id="Path" fill="#FFFFFF" fill-rule="nonzero"></path>
                        <path d="M2.66490566,8.11509434 L0.386037736,8.11509434 C0.498113208,7.68339623 0.639245283,7.26830189 0.805283019,6.86981132 L2.66490566,8.11509434 Z" id="Path"></path>
                        <path d="M7.32226415,8.11509434 L4.54528302,8.11509434 L1.24943396,5.91509434 C1.46943396,5.48339623 1.71849057,5.07245283 2.00075472,4.67811321 L7.32226415,8.11509434 L7.32226415,8.11509434 Z" id="Path"></path>
                        <path d="M7.99056604,0.45245283 L7.99056604,6.96113208 L2.90150943,3.55320755 C4.23396226,2.10867925 5.94415094,1.02113208 7.87849057,0.45245283 L7.99056604,0.45245283 Z" id="Path"></path>
                        <path d="M8.66716981,13.054717 L8.66716981,21.7509434 C8.39735849,21.6928302 8.13584906,21.630566 7.87849057,21.5475472 L7.99056604,21.5475472 L7.99056604,15.034717 L2.90150943,18.4426415 C2.57773585,18.0898113 2.27471698,17.7162264 2.00075472,17.3218868 L7.32226415,13.8849057 L4.54528302,13.8849057 L1.24943396,16.0807547 C1.07924528,15.7735849 0.933962264,15.4581132 0.805283019,15.1301887 L2.66490566,13.8849057 L0.386037736,13.8849057 C0.311320755,13.6150943 0.24490566,13.3369811 0.19509434,13.054717 L8.66716981,13.054717 Z" id="Path" fill="#FFFFFF" fill-rule="nonzero"></path>
                        <path d="M2.66490566,13.8849057 L0.805283019,15.1301887 C0.639245283,14.7316981 0.498113208,14.3166038 0.386037736,13.8849057 L2.66490566,13.8849057 Z" id="Path"></path>
                        <path d="M7.32226415,13.8849057 L2.00075472,17.3218868 C1.71849057,16.9275472 1.46943396,16.5124528 1.24943396,16.0807547 L4.54528302,13.8849057 L7.32226415,13.8849057 Z" id="Path"></path>
                        <path d="M7.99056604,15.034717 L7.99056604,21.5475472 L7.87849057,21.5475472 C5.94415094,20.974717 4.22981132,19.8871698 2.90150943,18.4426415 L7.99056604,15.034717 L7.99056604,15.034717 Z" id="Path"></path>
                        <path d="M21.6139623,13.8849057 L19.3392453,13.8849057 L21.1988679,15.1260377 L21.1988679,15.1260377 C21.0660377,15.4581132 20.9207547,15.769434 20.750566,16.0807547 L17.454717,13.8849057 L14.6818868,13.8849057 L19.9992453,17.3218868 C19.725283,17.7162264 19.4222642,18.0898113 19.0984906,18.4426415 L14.009434,15.034717 L14.009434,21.5475472 L14.1215094,21.5475472 C13.8641509,21.630566 13.5984906,21.6928302 13.3286792,21.7509434 L13.3286792,13.054717 L21.8049057,13.054717 C21.7550943,13.3369811 21.6886792,13.6150943 21.6139623,13.8849057 L21.6139623,13.8849057 Z" id="Path" fill="#FFFFFF" fill-rule="nonzero"></path>
                        <path d="M19.0984906,18.4426415 C17.7701887,19.8871698 16.0558491,20.974717 14.1215094,21.5475472 L14.009434,21.5475472 L14.009434,15.034717 L19.0984906,18.4426415 L19.0984906,18.4426415 Z" id="Path"></path>
                        <path d="M20.750566,16.0807547 C20.530566,16.5124528 20.2815094,16.9275472 19.9992453,17.3218868 L14.6818868,13.8849057 L17.454717,13.8849057 L20.750566,16.0807547 L20.750566,16.0807547 Z" id="Path"></path>
                        <path d="M21.6139623,13.8849057 C21.5018868,14.3124528 21.3607547,14.7275472 21.1988679,15.1260377 L19.3392453,13.8849057 L21.6139623,13.8849057 L21.6139623,13.8849057 Z" id="Path"></path>
                        <path d="M22,11 C22,11.7015094 21.9335849,12.390566 21.8049057,13.054717 L13.3286792,13.054717 L13.3286792,21.7509434 C12.5773585,21.9128302 11.8011321,22 11,22 C10.1988679,22 9.41849057,21.9128302 8.66716981,21.7509434 L8.66716981,13.054717 L0.19509434,13.054717 C0.0664150943,12.390566 0,11.7015094 0,11 C0,10.2984906 0.0664150943,9.60943396 0.19509434,8.94528302 L8.66716981,8.94528302 L8.66716981,0.249056604 C9.41849057,0.0871698113 10.1988679,0 11,0 C11.8011321,0 12.5773585,0.0871698113 13.3286792,0.249056604 L13.3286792,8.94528302 L21.8049057,8.94528302 C21.9335849,9.60943396 22,10.2984906 22,11 Z" id="Path"></path>
                    </g>
                </g>
            </g>
        </g>
    </g>
</svg>