<?xml version="1.0" encoding="UTF-8"?>
<svg width="40px" height="29px" viewBox="0 0 40 29" version="1.1" xmlns="http://www.w3.org/2000/svg" xmlns:xlink="http://www.w3.org/1999/xlink">
    <title>D82152FA-35C5-4B80-A3AB-BEA991B6C997</title>
    <g id="Page-1" stroke="none" stroke-width="1" fill="none" fill-rule="evenodd" stroke-linejoin="round">
        <g id="05-Optional-features" transform="translate(-325.000000, -508.000000)" stroke="#FFFFFF" stroke-width="1.6">
            <g id="Optional-features" transform="translate(285.000000, 295.000000)">
                <g id="ico-reporting-portal" transform="translate(40.000000, 213.000000)">
                    <line x1="14.7056648" y1="24.8002425" x2="14.7056648" y2="19.7335538" id="Path"></line>
                    <line x1="19.3191941" y1="24.8002425" x2="19.3191941" y2="15.0542989" id="Path"></line>
                    <line x1="33.1604251" y1="24.8002425" x2="33.1604251" y2="14.2314815" id="Path"></line>
                    <line x1="23.9333666" y1="24.8002425" x2="23.9333666" y2="5.86393298" id="Path"></line>
                    <line x1="28.5462527" y1="24.8002425" x2="28.5462527" y2="10.4990741" id="Path"></line>
                    <path d="M0,1.91798942 C0,0.863095238 0.86829284,0 1.92953964,0 L38.0704604,0 C39.1304208,0 40,0.863095238 40,1.91798942 L40,27.0820106 C40,28.1369048 39.1304208,29 38.0704604,29 L1.92953964,29 C0.86829284,29 0,28.1369048 0,27.0820106 L0,1.91798942 Z" id="Path"></path>
                    <line x1="7.57279992" y1="0.125947972" x2="7.57279992" y2="28.874052" id="Path"></line>
                    <line x1="3.84685887" y1="13.0838845" x2="3.84685887" y2="15.9167549" id="Path" stroke-linecap="round"></line>
                </g>
            </g>
        </g>
    </g>
</svg>