<?xml version="1.0" encoding="UTF-8"?>
<svg width="25px" height="24px" viewBox="0 0 25 24" version="1.1" xmlns="http://www.w3.org/2000/svg" xmlns:xlink="http://www.w3.org/1999/xlink">
    <title>60DF3EB9-4FD8-44FB-AD89-8BC8BC4383FD</title>
    <g id="Page-1" stroke="none" stroke-width="1" fill="none" fill-rule="evenodd">
        <g id="04-Learnosity-settings" transform="translate(-296.000000, -171.000000)" fill-rule="nonzero" stroke="#FFFFFF" stroke-width="2.5">
            <g id="Header" transform="translate(286.000000, 158.000000)">
                <g id="ico-learnosity" transform="translate(10.000000, 13.000000)">
                    <path d="M12.5,3.63189636 L12.5,20.3631521 L6.52006173,23.8836975 C6.26461671,24.0363782 5.94955907,24.0388884 5.69183719,23.8902961 C5.43411531,23.7417039 5.27220381,23.4641922 5.2662037,23.1607726 L5.2662037,0.839227446 C5.27220381,0.535807777 5.43411531,0.258296106 5.69183719,0.109703866 C5.94955907,-0.0388883735 6.26461671,-0.0363782389 6.52006173,0.116302516 L12.5,3.63189636 Z" id="Path"></path>
                    <path d="M12.5,3.63189636 L12.5,20.3631521 L18.4799383,23.8836975 C18.7353833,24.0363782 19.0504409,24.0388884 19.3081628,23.8902961 C19.5658847,23.7417039 19.7277962,23.4641922 19.7337963,23.1607726 L19.7337963,0.839227446 C19.7277962,0.535807777 19.5658847,0.258296106 19.3081628,0.109703866 C19.0504409,-0.0388883735 18.7353833,-0.0363782389 18.4799383,0.116302516 L12.5,3.63189636 Z" id="Path"></path>
                    <path d="M19.7337963,20.1502359 L19.7337963,3.81015182 L24.1946373,3.81015182 C24.4082328,3.81015182 24.6130799,3.89727216 24.7641147,4.05234735 C24.9151495,4.20742255 25,4.41774965 25,4.6370591 L25,19.3134255 C25,19.7701138 24.6394269,20.1403328 24.1946373,20.1403328 L19.7337963,20.1502359 Z" id="Path"></path>
                    <path d="M5.2662037,20.1502359 L5.2662037,3.81015182 L0.805362654,3.81015182 C0.591767198,3.81015182 0.386920056,3.89727216 0.23588526,4.05234735 C0.0848504646,4.20742255 0,4.41774965 0,4.6370591 L0,19.3134255 C0,19.7701138 0.360573142,20.1403328 0.805362654,20.1403328 L5.2662037,20.1502359 Z" id="Path"></path>
                </g>
            </g>
        </g>
    </g>
</svg>