<?xml version="1.0" encoding="UTF-8"?>
<svg width="42px" height="43px" viewBox="0 0 42 43" version="1.1" xmlns="http://www.w3.org/2000/svg" xmlns:xlink="http://www.w3.org/1999/xlink">
    <title>4F5C7387-0357-490C-B612-674B208861A7</title>
    <g id="Page-1" stroke="none" stroke-width="1" fill="none" fill-rule="evenodd">
        <g id="01-Initial-setup" transform="translate(-324.000000, -571.000000)" fill="#262262">
            <g id="Choose-a-solution" transform="translate(285.000000, 292.000000)">
                <g id="ico-open-ai" transform="translate(39.000000, 279.000000)">
                    <path d="M38.0214069,17.4443833 C38.7790245,16.0605 39.1776219,14.5110667 39.1776219,12.9222167 C39.1776219,11.2961 38.7514619,9.6879 37.944373,8.27105 C35.5358274,4.04343333 30.3272061,2.45673333 26.052179,4.51715 C25.6670096,3.86713333 25.205513,3.26656667 24.6726365,2.7262 C22.9397275,0.968216667 20.6308312,0 18.1728143,0 C13.3599634,0 9.40296608,3.7797 9.02345053,8.57706667 C5.80993618,8.63655 2.8345908,10.406 1.22889372,13.22895 C-1.18318556,17.458 0.0712652793,22.8287 3.97879131,25.5556167 C3.22046694,26.9395 2.82257634,28.4889333 2.82257634,30.0785 C2.82257634,31.7046167 3.24873626,33.3128167 4.0558252,34.7296667 C5.75622448,37.7153 8.85454138,39.388 12.0334258,39.388 C13.3564298,39.388 14.6942751,39.0956 15.9508461,38.4900167 C16.3353088,39.1378833 16.7960986,39.7363 17.326855,40.2752333 C19.059764,42.0317833 21.3686603,43 23.8266772,43 C28.639528,43 32.5965254,39.2203 32.9760409,34.4229333 C36.1895553,34.36345 39.1649007,32.594 40.7705977,29.77105 C43.1833838,25.542 41.9289329,20.1713 38.0214069,17.4443833 Z M36.7203117,8.987 C37.4030156,10.1867 37.7641561,11.5469333 37.7641561,12.9215 C37.7641561,14.24375 37.4362321,15.5330333 36.8157206,16.6890167 L27.0069751,10.94565 C26.7885947,10.8180833 26.5193294,10.8180833 26.300949,10.94565 L16.0441349,16.9362667 L16.0519089,11.9812333 L26.0818618,6.10815 C26.0931695,6.10241667 26.1044772,6.09596667 26.1150782,6.09023333 C29.8204787,3.92805 34.5796178,5.22808333 36.7203117,8.987 Z M25.9581835,24.4082333 L20.9933851,27.3078667 L16.0328271,24.3946167 L16.0420147,18.59105 L21.0068131,15.6914167 L25.9673711,18.6046667 L25.9581835,24.4082333 Z M10.3987527,9.30376667 C10.4051133,4.96435 13.8921333,1.43333333 18.1728143,1.43333333 C20.2534358,1.43333333 22.2068455,2.25248333 23.6733162,3.73885 C24.1093704,4.18103333 24.4881792,4.67051667 24.8069157,5.19941667 L14.9925163,10.94565 C14.7741359,11.0739333 14.6391499,11.3097167 14.6391499,11.56485 L14.6200681,23.5654333 L10.3987527,21.0872 L10.3987527,9.30376667 Z M2.45224832,13.9463333 C3.7999879,11.5756 6.29051453,10.0913833 8.98528696,10.0182833 L8.98528696,21.5 C8.98528696,21.7551333 9.1195662,21.99235 9.33794666,22.1199167 L19.5792127,28.1334667 L15.3458828,30.6059667 L5.34490595,24.7493667 C5.32723763,24.7364667 5.30886257,24.725 5.28978078,24.7135333 C1.58155342,22.5348667 0.30802079,17.70525 2.45224832,13.9463333 Z M5.27917979,34.013 C4.59647584,32.8133 4.23533534,31.4530667 4.23533534,30.0785 C4.23533534,28.75625 4.5632594,27.4669667 5.18377085,26.3109833 L14.9925163,32.05435 C15.1020599,32.1181333 15.223618,32.1503833 15.3458828,32.1503833 C15.4674408,32.1503833 15.5897056,32.1181333 15.6985425,32.05435 L25.9553566,26.0637333 L25.9475825,31.0187667 L15.9176297,36.89185 C15.9063219,36.8975833 15.8950142,36.9040333 15.8844132,36.9097667 C12.1790128,39.0712333 7.42058038,37.7712 5.27917979,34.013 Z M31.6007388,33.6962333 C31.5943782,38.03565 28.1073582,41.5666667 23.8266772,41.5666667 C21.7460556,41.5666667 19.792646,40.7475167 18.3261753,39.26115 C17.8901211,38.8189667 17.5113123,38.3294833 17.1925758,37.8005833 L27.0069751,32.05435 C27.2253556,31.9260667 27.3603416,31.6902833 27.3603416,31.43515 L27.3794233,19.4345667 L31.6007388,21.9128 L31.6007388,33.6962333 Z M39.5472431,29.0536667 C38.1995036,31.4244 35.7089769,32.9086167 33.0142045,32.9817167 L33.0142045,21.5 C33.0142045,21.2448667 32.8799253,21.00765 32.6615448,20.8800833 L22.4202788,14.8658167 L26.6536087,12.3940333 L36.6545855,18.2506333 C36.6722538,18.2635333 36.6906289,18.275 36.7097107,18.2864667 C40.417938,20.4651333 41.6914707,25.29475 39.5472431,29.0536667 Z" id="Shape" fill-rule="nonzero"></path>
                    <path d="M21.5927045,17.9166667 L21.5922712,20.8916667 L24.533014,20.8926554 L24.533014,22.0830508 L21.5922712,22.0826667 L21.5927045,25.0590395 L20.4165807,25.0590395 L20.4162712,22.0826667 L17.4762712,22.0830508 L17.4762712,20.8926554 L20.4162712,20.8916667 L20.4165807,17.9166667 L21.5927045,17.9166667 Z" id="Combined-Shape"></path>
                </g>
            </g>
        </g>
    </g>
</svg>