<?xml version="1.0" encoding="UTF-8"?>
<svg width="40px" height="41px" viewBox="0 0 40 41" version="1.1" xmlns="http://www.w3.org/2000/svg" xmlns:xlink="http://www.w3.org/1999/xlink">
    <title>4FF0B430-97CE-466C-9CD5-4EDE1F21DD1D</title>
    <g id="Page-1" stroke="none" stroke-width="1" fill="none" fill-rule="evenodd">
        <g id="01-Initial-setup" transform="translate(-325.000000, -494.000000)">
            <g id="Choose-a-solution" transform="translate(285.000000, 292.000000)">
                <g id="ico-learnosity-new" transform="translate(40.000000, 202.000000)">
                    <g id="Group-12" fill-rule="nonzero" stroke="#262262" stroke-width="1.33770492">
                        <path d="M20,6.20448961 L20,34.7870515 L9.66666667,40.8013165 C9.22525767,41.0621462 8.68083808,41.0664343 8.23549467,40.8125892 C7.79015126,40.5587442 7.51036818,40.0846617 7.5,39.5663198 L7.5,1.43368022 C7.51036818,0.915338285 7.79015126,0.441255848 8.23549467,0.187410772 C8.68083808,-0.0664343046 9.22525767,-0.0621461582 9.66666667,0.198683465 L20,6.20448961 Z" id="Path"></path>
                        <path d="M20,6.20448961 L20,34.7870515 L30.3333333,40.8013165 C30.7747423,41.0621462 31.3191619,41.0664343 31.7645053,40.8125892 C32.2098487,40.5587442 32.4896318,40.0846617 32.5,39.5663198 L32.5,1.43368022 C32.4896318,0.915338285 32.2098487,0.441255848 31.7645053,0.187410772 C31.3191619,-0.0664343046 30.7747423,-0.0621461582 30.3333333,0.198683465 L20,6.20448961 Z" id="Path"></path>
                        <path d="M32.5,34.4233196 L32.5,6.50900935 L38.6083333,6.50900935 C38.9774263,6.50900935 39.3314021,6.65783993 39.5923903,6.92276006 C39.8533784,7.18768019 40,7.54698899 40,7.92164263 L40,32.9937686 C40,33.7739444 39.3769296,34.4064018 38.6083333,34.4064018 L32.5,34.4233196 Z" id="Path"></path>
                        <path d="M7.5,34.4233196 L7.5,6.50900935 L1.39166667,6.50900935 C1.02257372,6.50900935 0.668597856,6.65783993 0.40760973,6.92276006 C0.146621603,7.18768019 0,7.54698899 0,7.92164263 L0,32.9937686 C0,33.7739444 0.62307039,34.4064018 1.39166667,34.4064018 L7.5,34.4233196 Z" id="Path"></path>
                    </g>
                    <rect id="Rectangle" fill="#262262" x="16" y="18.9778206" width="8" height="1.3442623"></rect>
                    <rect id="Rectangle" fill="#262262" x="19.3333333" y="22.852459" width="1.33333333" height="8.06557377"></rect>
                    <rect id="Rectangle" fill="#F5F7FA" x="18.4" y="13.6007715" width="3.2" height="2.01639344"></rect>
                    <rect id="Rectangle" fill="#F5F7FA" x="17.6" y="23.6827387" width="4.8" height="2.01639344"></rect>
                </g>
            </g>
        </g>
    </g>
</svg>