<?xml version="1.0" encoding="UTF-8"?>
<svg width="17.85px" height="17.81975px" viewBox="0 0 17.85 17.81975" version="1.1" xmlns="http://www.w3.org/2000/svg" xmlns:xlink="http://www.w3.org/1999/xlink">
    <title>81756F8C-493C-45E7-B4ED-A815EAC5FA67</title>
    <g id="Page-1" stroke="none" stroke-width="1" fill="none" fill-rule="evenodd">
        <g id="03-Branding" transform="translate(-658.000000, -660.000000)" fill="#043A5C" fill-rule="nonzero">
            <g id="Select-colours" transform="translate(286.000000, 526.000000)">
                <g id="colours" transform="translate(0.000000, 31.000000)">
                    <g id="btn-picker" transform="translate(363.000000, 95.000000)">
                        <g id="ico-piker" transform="translate(9.000000, 8.000000)">
                            <path d="M17.85,2.97075 C17.85,2.16975 17.538,1.41575 16.971,0.84975 C15.837,-0.28325 13.862,-0.28325 12.729,0.84975 L11.315,2.26375 L11.315,2.26375 L10.607,1.55675 L9.193,2.97075 L9.901,3.67775 L1.415,12.16275 C0.494,13.08375 0.31,14.45375 0.838,15.56775 L0,16.40575 L1.414,17.81975 L2.25,16.98375 C2.648,17.17275 3.082,17.28375 3.536,17.28375 C4.337,17.28375 5.091,16.97175 5.657,16.40575 L14.142,7.92075 L14.849,8.62775 L16.263,7.21375 L15.556,6.50675 L16.97,5.09175 C17.537,4.52475 17.85,3.77175 17.85,2.97075 Z M4.243,14.99175 C3.866,15.36875 3.206,15.36875 2.829,14.99175 C2.438,14.60075 2.438,13.96775 2.829,13.57675 L11.314,5.09175 L12.021,5.79975 L12.728,6.50675 L4.243,14.99175 Z M15.557,3.67775 L14.143,5.09275 L13.436,4.38575 L12.729,3.67775 L14.143,2.26375 C14.52,1.88775 15.179,1.88575 15.557,2.26375 C15.745,2.45175 15.85,2.70375 15.85,2.97075 C15.85,3.23775 15.746,3.48875 15.557,3.67775 Z" id="Shape"></path>
                        </g>
                    </g>
                </g>
            </g>
        </g>
    </g>
</svg>